<?xml version="1.0" encoding="UTF-8" standalone="no"?>
<!-- Created with Inkscape (http://www.inkscape.org/) -->

<svg
   width="16.405325mm"
   height="16.405325mm"
   viewBox="0 0 16.405325 16.405325"
   version="1.1"
   id="svg4608"
   inkscape:version="1.1.1 (3bf5ae0d25, 2021-09-20)"
   sodipodi:docname="Curves Icon.svg"
   xmlns:inkscape="http://www.inkscape.org/namespaces/inkscape"
   xmlns:sodipodi="http://sodipodi.sourceforge.net/DTD/sodipodi-0.dtd"
   xmlns="http://www.w3.org/2000/svg"
   xmlns:svg="http://www.w3.org/2000/svg">
  <sodipodi:namedview
     id="namedview4610"
     pagecolor="#ffffff"
     bordercolor="#666666"
     borderopacity="1.0"
     inkscape:pageshadow="2"
     inkscape:pageopacity="0.0"
     inkscape:pagecheckerboard="0"
     inkscape:document-units="mm"
     showgrid="false"
     inkscape:zoom="2.6547419"
     inkscape:cx="9.2287692"
     inkscape:cy="-21.282672"
     inkscape:window-width="1284"
     inkscape:window-height="969"
     inkscape:window-x="299"
     inkscape:window-y="138"
     inkscape:window-maximized="0"
     inkscape:current-layer="layer1" />
  <defs
     id="defs4605" />
  <g
     inkscape:label="Layer 1"
     inkscape:groupmode="layer"
     id="layer1"
     transform="translate(-56.678539,-91.760407)">
    <g
       id="g76"
       transform="matrix(0.04577404,0,0,0.04577404,48.860241,87.659007)"
       style="fill:#a8afa5;fill-opacity:1">
      <path
         d="M 518,425.6 H 193.2 V 100.8 c 0,-6.1602 -5.0391,-11.199 -11.199,-11.199 -6.1599,0 -11.199,5.0391 -11.199,11.199 v 336 c 0,6.1602 5.0391,11.199 11.199,11.199 h 336 c 6.1602,0 11.199,-5.0391 11.199,-11.199 0,-6.1602 -5.0391,-11.199 -11.199,-11.199 z"
         id="path40"
         style="fill:#a8afa5;fill-opacity:1" />
      <path
         d="m 238,392 c 138.66,0 235.2,-123.98 235.2,-235.2 0,-6.1602 -5.0391,-11.199 -11.199,-11.199 -6.1599,0 -11.199,5.0391 -11.199,11.199 0,88.816 -80.977,212.8 -212.8,212.8 -6.1602,0 -11.199,5.0391 -11.199,11.199 0,6.1602 5.0391,11.199 11.199,11.199 z"
         id="path42"
         style="fill:#a8afa5;fill-opacity:1" />
    </g>
  </g>
</svg>
