<?xml version="1.0" encoding="UTF-8" standalone="no"?>
<!-- Created with Inkscape (http://www.inkscape.org/) -->

<svg
   width="16.282042mm"
   height="16.281965mm"
   viewBox="0 0 16.282042 16.281965"
   version="1.1"
   id="svg4608"
   inkscape:version="1.1.1 (3bf5ae0d25, 2021-09-20)"
   sodipodi:docname="Historic Icon.svg"
   xmlns:inkscape="http://www.inkscape.org/namespaces/inkscape"
   xmlns:sodipodi="http://sodipodi.sourceforge.net/DTD/sodipodi-0.dtd"
   xmlns="http://www.w3.org/2000/svg"
   xmlns:svg="http://www.w3.org/2000/svg">
  <sodipodi:namedview
     id="namedview4610"
     pagecolor="#ffffff"
     bordercolor="#666666"
     borderopacity="1.0"
     inkscape:pageshadow="2"
     inkscape:pageopacity="0.0"
     inkscape:pagecheckerboard="0"
     inkscape:document-units="mm"
     showgrid="false"
     inkscape:zoom="2.6547419"
     inkscape:cx="46.143846"
     inkscape:cy="42.753686"
     inkscape:window-width="1284"
     inkscape:window-height="969"
     inkscape:window-x="299"
     inkscape:window-y="138"
     inkscape:window-maximized="0"
     inkscape:current-layer="layer1" />
  <defs
     id="defs4605" />
  <g
     inkscape:label="Layer 1"
     inkscape:groupmode="layer"
     id="layer1"
     transform="translate(-46.942887,-74.848955)">
    <g
       id="g109"
       transform="matrix(0.03001298,0,0,0.03001298,44.579365,74.586341)"
       style="fill:#a8afa5;fill-opacity:1">
      <path
         d="m 245,446.25 c 0,28.523 11.605,55.816 32.145,75.609 20.539,19.789 48.246,30.375 76.75,29.316 28.504,-1.0586 55.348,-13.668 74.367,-34.926 l -13.039,-11.664 c -18.324,20.488 -45.211,31.18 -72.602,28.859 -27.391,-2.3164 -52.102,-17.375 -66.719,-40.652 -14.621,-23.277 -17.453,-52.07 -7.6445,-77.75 9.8047,-25.68 31.109,-45.258 57.523,-52.867 26.414,-7.609 54.871,-2.3633 76.832,14.168 21.965,16.527 34.883,42.418 34.887,69.906 0,2.7109 -0.26172,5.3906 -0.50781,8.0781 l -9.9922,-13.328 -14,10.5 26.25,35 c 1.6523,2.2031 4.2461,3.5 7,3.5 2.7539,0 5.3477,-1.2969 7,-3.5 l 26.25,-35 -14,-10.5 -11.094,14.797 c 0.28125,-3.168 0.59375,-6.3438 0.59375,-9.5469 0,-37.512 -20.012,-72.176 -52.5,-90.934 -32.488,-18.754 -72.512,-18.754 -105,0 -32.488,18.758 -52.5,53.422 -52.5,90.934 z"
         id="path49"
         style="fill:#a8afa5;fill-opacity:1" />
      <path
         d="m 341.25,449.59 -30.16,15.078 7.8242,15.664 35,-17.5 -0.004,-0.004 c 2.9688,-1.4844 4.8398,-4.5156 4.8398,-7.832 v -70 h -17.5 z"
         id="path51"
         style="fill:#a8afa5;fill-opacity:1" />
      <path
         d="m 498.75,437.5 h 122.5 V 455 h -122.5 z"
         id="path53-2"
         style="fill:#a8afa5;fill-opacity:1" />
      <path
         d="M 78.75,437.5 H 227.5 V 455 H 78.75 Z"
         id="path55"
         style="fill:#a8afa5;fill-opacity:1" />
      <path
         d="M 183.75,420 V 227.5 c 0,-2.3203 -0.92188,-4.5469 -2.5625,-6.1875 C 179.54688,219.6719 177.3203,218.75 175,218.75 h -70 c -4.832,0 -8.75,3.918 -8.75,8.75 V 420 h 17.5 V 236.25 h 52.5 V 420 Z"
         id="path57"
         style="fill:#a8afa5;fill-opacity:1" />
      <path
         d="m 315,131.25 h -70 c -4.832,0 -8.75,3.918 -8.75,8.75 v 227.5 h 17.5 V 148.75 h 52.5 v 175 h 17.5 V 140 c 0,-2.3203 -0.92188,-4.5469 -2.5625,-6.1875 C 319.54688,132.1719 317.3203,131.25 315,131.25 Z"
         id="path59-6"
         style="fill:#a8afa5;fill-opacity:1" />
      <path
         d="m 463.75,367.5 v -140 c 0,-2.3203 -0.92188,-4.5469 -2.5625,-6.1875 C 459.54688,219.6719 457.3203,218.75 455,218.75 h -70 c -4.832,0 -8.75,3.918 -8.75,8.75 v 96.25 h 17.5 v -87.5 h 52.5 V 367.5 Z"
         id="path61"
         style="fill:#a8afa5;fill-opacity:1" />
      <path
         d="M 603.75,420 V 140 c 0,-2.3203 -0.92188,-4.5469 -2.5625,-6.1875 C 599.54688,132.1719 597.3203,131.25 595,131.25 h -70 c -4.832,0 -8.75,3.918 -8.75,8.75 v 280 h 17.5 V 148.75 h 52.5 V 420 Z"
         id="path63"
         style="fill:#a8afa5;fill-opacity:1" />
      <path
         d="m 560,78.75 c 9.2812,0 18.184,-3.6875 24.75,-10.25 C 591.3125,61.9336 595,53.031 595,43.75 595,34.469 591.3125,25.566 584.75,19 578.1836,12.4375 569.281,8.75 560,8.75 550.719,8.75 541.816,12.4375 535.25,19 528.6875,25.5664 525,34.469 525,43.75 c 0.0391,3.5703 0.62891,7.1094 1.75,10.5 l -82.738,51.625 c -6.5938,-6.3086 -15.398,-9.7773 -24.523,-9.6562 -9.1211,0.11719 -17.836,3.8164 -24.258,10.297 l -90.469,-53.227 c 0.94141,-3.0938 1.4414,-6.3047 1.4883,-9.5391 -0.004,-10.469 -4.6953,-20.387 -12.789,-27.027 -8.0898,-6.6445 -18.727,-9.3203 -28.996,-7.2891 -10.273,2.0312 -19.094,8.5508 -24.047,17.773 -4.9531,9.2227 -5.5195,20.176 -1.543,29.859 l -85.906,64.453 c -6.1406,-4.9922 -13.805,-7.7344 -21.719,-7.7695 -10.102,-0.0117 -19.719,4.332 -26.391,11.918 -6.6719,7.5859 -9.7461,17.684 -8.4375,27.699 1.3047,10.02 6.8711,18.984 15.262,24.609 8.3945,5.6211 18.805,7.3516 28.566,4.7461 9.7617,-2.6055 17.926,-9.293 22.402,-18.352 4.4766,-9.0547 4.832,-19.602 0.97266,-28.938 l 85.941,-64.453 c 6.6758,5.4336 15.137,8.1875 23.734,7.7188 8.5938,-0.46875 16.707,-4.1211 22.754,-10.246 l 90.434,53.258 c -0.94141,3.0938 -1.4414,6.3047 -1.4883,9.5391 0,12.504 6.6719,24.059 17.5,30.312 10.828,6.25 24.172,6.25 35,0 10.828,-6.2539 17.5,-17.809 17.5,-30.312 -0.0391,-3.5703 -0.62891,-7.1094 -1.75,-10.5 l 82.738,-51.625 c 6.4727,6.1719 15.07,9.6211 24.012,9.625 z m 0,-52.5 c 4.6406,0 9.0938,1.8438 12.375,5.125 3.2812,3.2812 5.125,7.7344 5.125,12.375 0,4.6406 -1.8438,9.0938 -5.125,12.375 -3.2812,3.2812 -7.7344,5.125 -12.375,5.125 -4.6406,0 -9.0938,-1.8438 -12.375,-5.125 -3.2812,-3.2812 -5.125,-7.7344 -5.125,-12.375 0,-4.6406 1.8438,-9.0938 5.125,-12.375 3.2812,-3.2812 7.7344,-5.125 12.375,-5.125 z m -428.75,140 c -4.6406,0 -9.0938,-1.8438 -12.375,-5.125 -3.2812,-3.2812 -5.125,-7.7344 -5.125,-12.375 0,-4.6406 1.8438,-9.0938 5.125,-12.375 3.2812,-3.2812 7.7344,-5.125 12.375,-5.125 4.6406,0 9.0938,1.8438 12.375,5.125 3.2812,3.2812 5.125,7.7344 5.125,12.375 0,4.6406 -1.8438,9.0938 -5.125,12.375 -3.2812,3.2812 -7.7344,5.125 -12.375,5.125 z m 140,-105 c -4.6406,0 -9.0938,-1.8438 -12.375,-5.125 -3.2812,-3.2812 -5.125,-7.7344 -5.125,-12.375 0,-4.6406 1.8438,-9.0938 5.125,-12.375 3.2812,-3.2812 7.7344,-5.125 12.375,-5.125 4.6406,0 9.0938,1.8438 12.375,5.125 3.2812,3.2812 5.125,7.7344 5.125,12.375 0,4.6406 -1.8438,9.0938 -5.125,12.375 -3.2812,3.2812 -7.7344,5.125 -12.375,5.125 z M 420,148.75 c -4.6406,0 -9.0938,-1.8438 -12.375,-5.125 -3.2812,-3.2812 -5.125,-7.7344 -5.125,-12.375 0,-4.6406 1.8438,-9.0938 5.125,-12.375 3.2812,-3.2812 7.7344,-5.125 12.375,-5.125 4.6406,0 9.0938,1.8438 12.375,5.125 3.2812,3.2812 5.125,7.7344 5.125,12.375 0,4.6406 -1.8438,9.0938 -5.125,12.375 -3.2812,3.2812 -7.7344,5.125 -12.375,5.125 z"
         id="path65-6"
         style="fill:#a8afa5;fill-opacity:1" />
    </g>
  </g>
</svg>
