<?xml version="1.0" encoding="UTF-8" standalone="no"?>
<!-- Created with Inkscape (http://www.inkscape.org/) -->

<svg
   width="30.155951mm"
   height="19.103798mm"
   viewBox="0 0 30.155952 19.103798"
   version="1.1"
   id="svg4608"
   inkscape:version="1.1.1 (3bf5ae0d25, 2021-09-20)"
   sodipodi:docname="OPV Icon.svg"
   xmlns:inkscape="http://www.inkscape.org/namespaces/inkscape"
   xmlns:sodipodi="http://sodipodi.sourceforge.net/DTD/sodipodi-0.dtd"
   xmlns="http://www.w3.org/2000/svg"
   xmlns:svg="http://www.w3.org/2000/svg">
  <sodipodi:namedview
     id="namedview4610"
     pagecolor="#ffffff"
     bordercolor="#666666"
     borderopacity="1.0"
     inkscape:pageshadow="2"
     inkscape:pageopacity="0.0"
     inkscape:pagecheckerboard="0"
     inkscape:document-units="mm"
     showgrid="false"
     inkscape:zoom="2.6547419"
     inkscape:cx="-35.596681"
     inkscape:cy="49.534006"
     inkscape:window-width="1284"
     inkscape:window-height="969"
     inkscape:window-x="299"
     inkscape:window-y="138"
     inkscape:window-maximized="0"
     inkscape:current-layer="layer1" />
  <defs
     id="defs4605">
    <clipPath
       id="id1">
      <path
         d="m 164.53516,129.37891 h 49.96875 v 44.25 h -49.96875 z m 0,0"
         clip-rule="nonzero"
         id="path4" />
    </clipPath>
  </defs>
  <g
     inkscape:label="Layer 1"
     inkscape:groupmode="layer"
     id="layer1"
     transform="translate(-68.500359,-73.029976)">
    <rect
       style="display:inline;fill:#645b00;fill-opacity:1;fill-rule:evenodd;stroke-width:0.246667;stroke-linecap:round;stroke-linejoin:bevel;stroke-dasharray:0.493336, 0.493336;paint-order:markers fill stroke"
       id="rect2902"
       width="30.155951"
       height="19.103798"
       x="68.500359"
       y="73.029976" />
    <g
       id="g66225"
       transform="translate(47.230514,3.043136)"
       style="display:inline">
      <text
         xml:space="preserve"
         style="font-size:16.0758px;line-height:12.0569px;font-family:Bahnschrift;-inkscape-font-specification:Bahnschrift;letter-spacing:0px;word-spacing:0px;fill:#cfad52;fill-opacity:1;stroke-width:0.241137"
         x="35.868752"
         y="85.245331"
         id="text59061"><tspan
           sodipodi:role="line"
           id="tspan59059"
           style="font-style:normal;font-variant:normal;font-weight:normal;font-stretch:condensed;font-size:16.0758px;font-family:Bahnschrift;-inkscape-font-specification:'Bahnschrift Condensed';fill:#cfad52;fill-opacity:1;stroke-width:0.241137"
           x="35.868752"
           y="85.245331"
           rotate="0 0 0">PV</tspan></text>
      <g
         id="g61243"
         transform="matrix(0.11917643,0,0,0.11917643,18.717575,72.136782)">
        <path
           fill="#f4f3f3"
           d="m 88.543634,14.465267 c -2.88281,0 -5.73828,0.25781 -8.57422,0.76953 -2.83203,0.51563 -5.59765,1.27735 -8.29296,2.29297 -2.69532,1.01172 -5.27735,2.25781 -7.74219,3.73438 -2.46875,1.48046 -4.78516,3.16796 -6.94141,5.0625 -0.16406,0.14453 -0.29687,0.3125 -0.39062,0.50781 -0.0977,0.19531 -0.15235,0.39844 -0.16407,0.61719 -0.0156,0.21484 0.0117,0.42578 0.0859,0.63281 0.0703,0.20312 0.17578,0.39062 0.32031,0.55078 0.14454,0.16406 0.31641,0.29297 0.51172,0.38672 0.19532,0.0977 0.40235,0.15234 0.6211,0.16406 0.21484,0.0156 0.42968,-0.0156 0.63672,-0.0859 0.20312,-0.0703 0.39062,-0.17578 0.55468,-0.32031 0.70703,-0.62109 1.4375,-1.21875 2.1836,-1.79687 0.75,-0.57422 1.51562,-1.125 2.29687,-1.65235 0.78516,-0.52734 1.58203,-1.02734 2.39844,-1.5039 0.81641,-0.47657 1.64453,-0.92579 2.48828,-1.34766 0.84766,-0.42578 1.70313,-0.82031 2.57422,-1.19141 0.86719,-0.36718 1.75,-0.70703 2.64062,-1.01953 0.89063,-0.3125 1.79297,-0.59765 2.70313,-0.85547 0.91016,-0.2539 1.82812,-0.48047 2.75,-0.67578 0.92578,-0.19922 1.85547,-0.36719 2.79297,-0.5039 0.93359,-0.14063 1.87109,-0.2461 2.8164,-0.32422 0.94141,-0.082 1.88282,-0.12891 2.82813,-0.14844 0.94531,-0.0195 1.89062,-0.008 2.83594,0.0352 0.94531,0.043 1.88672,0.11328 2.82812,0.21484 0.94141,0.10156 1.875,0.23047 2.8086,0.39453 0.92968,0.16016 1.85546,0.35156 2.77734,0.57031 0.91797,0.21875 1.828116,0.46875 2.730466,0.7461 0.90625,0.27734 1.80078,0.58203 2.68359,0.91797 0.88282,0.33203 1.75392,0.69531 2.6172,1.08593 0.85937,0.39063 1.70703,0.80469 2.53906,1.25 0.83594,0.44532 1.65235,0.91407 2.45703,1.41016 0.80469,0.49609 1.58986,1.01562 2.35939,1.5625 0.76953,0.54297 1.52344,1.11328 2.2539,1.70703 0.73438,0.59375 1.44922,1.21094 2.14454,1.84766 0.6914,0.64062 1.36328,1.30078 2.01562,1.98047 0.65234,0.68359 1.28125,1.38281 1.88672,2.10546 0.60547,0.72266 1.1875,1.46094 1.74609,2.21875 0.5625,0.76172 1.09375,1.53516 1.60157,2.32813 0.51171,0.79297 0.99219,1.60156 1.44922,2.42578 0.45704,0.82031 0.89063,1.66016 1.29297,2.50781 0.40235,0.85156 0.77735,1.71485 1.125,2.58985 0.34766,0.87109 0.66797,1.75781 0.95703,2.65234 0.29297,0.89453 0.55469,1.79687 0.78907,2.70703 0.23047,0.91406 0.43359,1.83203 0.60937,2.75391 0.17188,0.92578 0.31641,1.85547 0.42969,2.78906 0.11719,0.93359 0.19922,1.86719 0.25391,2.80859 0.0547,0.9375 0.0781,1.875 0.0703,2.81641 -0.004,0.94141 -0.043,1.87891 -0.10938,2.81641 -0.0664,0.9414 -0.16015,1.875 -0.28906,2.80468 -0.125,0.9336 -0.28125,1.85938 -0.46875,2.78125 -0.1875,0.92188 -0.40234,1.83594 -0.64844,2.7461 -0.24609,0.90625 -0.51953,1.80859 -0.82031,2.69922 -0.30469,0.89062 -0.63672,1.76953 -0.99609,2.64062 -0.35938,0.86719 -0.7461,1.72656 -1.16016,2.57031 -0.41406,0.84766 -0.85547,1.67578 -1.32422,2.4961 -0.46876,0.8164 -0.96095,1.61718 -1.48048,2.40234 -0.51953,0.78516 -1.0625,1.55469 -1.63281,2.30469 -0.57031,0.75 -1.16016,1.48437 -1.77734,2.19531 -0.61719,0.71484 -1.25391,1.41016 -1.91407,2.08203 -0.66015,0.67188 -1.34375,1.32422 -2.04296,1.95313 -0.70313,0.6289 -1.42579,1.23437 -2.16797,1.82031 -0.74219,0.58203 -1.5,1.14453 -2.27735,1.67969 -0.77735,0.53515 -1.57032,1.04297 -2.38282,1.52734 -0.80859,0.488283 -1.63281,0.945313 -2.47266,1.378913 -0.83984,0.43359 -1.6914,0.83593 -2.55859,1.21484 -0.86719,0.37891 -1.74219,0.73047 -2.62892,1.05078 -0.89062,0.32422 -1.78906,0.61719 -2.69531,0.88281 -0.90625,0.26563 -1.820306,0.50391 -2.742186,0.71094 -0.92187,0.20703 -1.85156,0.38672 -2.78515,0.53516 -0.9336,0.14844 -1.8711,0.26562 -2.8125,0.35547 -0.94141,0.0898 -1.88281,0.14843 -2.82813,0.17578 -0.94531,0.0273 -1.89062,0.0273 -2.83593,-0.004 -0.94532,-0.0312 -1.89063,-0.0898 -2.83204,-0.18359 -0.9375,-0.0898 -1.875,-0.21094 -2.80859,-0.35938 -0.93359,-0.15234 -1.86328,-0.33203 -2.78516,-0.54297 -0.92187,-0.20703 -1.83593,-0.44531 -2.74218,-0.71484 -0.90625,-0.26562 -1.80078,-0.5625 -2.69141,-0.88672 -0.88672,-0.32812 -1.76172,-0.67969 -2.62891,-1.05859 -0.86328,-0.37891 -1.71484,-0.78906 -2.55468,-1.22266 -0.83594,-0.43359 -1.66016,-0.89453 -2.46875,-1.382813 -0.8086,-0.48438 -1.60157,-0.99609 -2.37891,-1.53516 -0.77734,-0.53515 -1.53516,-1.09765 -2.27344,-1.68359 -0.74218,-0.58594 -1.46093,-1.19531 -2.16015,-1.82422 -0.70313,-0.63281 -1.38282,-1.28516 -2.04297,-1.95703 -0.65625,-0.67578 -1.29297,-1.37109 -1.91016,-2.08594 -0.61328,-0.71484 -1.20312,-1.44922 -1.76953,-2.19922 -0.57031,-0.7539 -1.10937,-1.52343 -1.62891,-2.30859 -0.51953,-0.78906 -1.00781,-1.58984 -1.47656,-2.41016 -0.46484,-0.8164 -0.90625,-1.64843 -1.3164,-2.49609 -0.41407,-0.84375 -0.80079,-1.70313 -1.15625,-2.57422 -0.35938,-0.87109 -0.6875,-1.75 -0.98829,-2.64062 -0.30078,-0.89454 -0.57421,-1.79297 -0.8164,-2.70313 -0.24219,-0.90625 -0.45703,-1.82422 -0.64063,-2.74609 -0.18359,-0.92188 -0.33984,-1.84766 -0.46093,-2.78125 -0.125,-0.9336 -0.22266,-1.86719 -0.28516,-2.80469 -0.0664,-0.9375 -0.0977,-1.87891 -0.10156,-2.81641 -0.008,-0.9414 0.0195,-1.88281 0.0781,-2.82031 0.0547,-0.9375 0.14063,-1.875 0.25781,-2.80859 0.11719,-0.9336 0.26172,-1.85938 0.4375,-2.78516 0.17579,-0.92187 0.38282,-1.83984 0.61719,-2.75 0.23438,-0.91016 0.5,-1.8125 0.79297,-2.70703 0.29297,-0.89453 0.61328,-1.77734 0.96094,-2.65234 0.35156,-0.875 0.73047,-1.73438 1.13281,-2.58594 0.40625,-0.84766 0.83984,-1.6836 1.29688,-2.50781 0.46093,-0.82032 0.94531,-1.62891 1.45312,-2.41797 0.51172,-0.79297 1.04688,-1.56641 1.60938,-2.32422 0.55859,-0.75781 1.14453,-1.49609 1.75,-2.21484 0.14843,-0.16797 0.25781,-0.35547 0.32812,-0.5625 0.0703,-0.21094 0.0977,-0.42188 0.0781,-0.64454 -0.0156,-0.21875 -0.0742,-0.42578 -0.17579,-0.62109 -0.10156,-0.19531 -0.23437,-0.36719 -0.40625,-0.50781 -0.16796,-0.14063 -0.35937,-0.2461 -0.57031,-0.3086 -0.21094,-0.0664 -0.42578,-0.0898 -0.64844,-0.0664 -0.21875,0.0234 -0.42578,0.0859 -0.62109,0.1914 -0.19531,0.10547 -0.36328,0.24219 -0.5,0.41407 -0.57812,0.68359 -1.13281,1.38281 -1.67187,2.09375 -0.53516,0.71484 -1.05079,1.44531 -1.54688,2.1875 -0.49609,0.74218 -0.96875,1.5 -1.42187,2.26953 -0.45313,0.76953 -0.88282,1.55078 -1.28907,2.34375 -0.41015,0.79297 -0.79687,1.59765 -1.15625,2.41406 -0.36328,0.8125 -0.70312,1.63672 -1.01953,2.47266 -0.3164,0.83593 -0.60547,1.67578 -0.875,2.52734 -0.26953,0.85156 -0.51172,1.70703 -0.73047,2.57422 -0.21875,0.86328 -0.41406,1.73047 -0.58593,2.60547 -0.16797,0.8789 -0.31641,1.75781 -0.4336,2.64062 -0.12109,0.88281 -0.21875,1.76953 -0.28906,2.65625 -0.0703,0.89063 -0.11328,1.77735 -0.13281,2.67188 -0.0195,0.89062 -0.0156,1.78125 0.0156,2.67187 0.0312,0.89063 0.0898,1.78125 0.16797,2.66797 0.082,0.88672 0.1875,1.77344 0.32031,2.65234 0.13282,0.88282 0.28907,1.76172 0.46875,2.63282 0.1836,0.875 0.38672,1.74218 0.61719,2.60156 0.23047,0.86328 0.48438,1.71875 0.76563,2.5625 0.27734,0.84766 0.58203,1.6875 0.90625,2.51953 0.32812,0.82813 0.67578,1.64844 1.05078,2.46094 0.37109,0.80859 0.76562,1.60937 1.18359,2.39844 0.41797,0.78515 0.85938,1.5625 1.32031,2.32812 0.46485,0.76172 0.94532,1.51172 1.45313,2.25 0.5039,0.73438 1.02734,1.45703 1.57422,2.16406 0.54687,0.70703 1.10937,1.39844 1.69531,2.07422 0.58594,0.67578 1.1875,1.33594 1.8125,1.97656 0.62109,0.64063 1.26172,1.26563 1.91797,1.8711 0.65625,0.60547 1.33203,1.19531 2.02344,1.76172 0.6914,0.5664 1.39453,1.11718 2.11718,1.644533 0.72266,0.52734 1.46094,1.03515 2.21094,1.52344 0.75,0.48828 1.51172,0.95312 2.28906,1.39843 0.77735,0.44141 1.56641,0.86719 2.36719,1.26563 0.80078,0.39844 1.61328,0.77734 2.4375,1.13281 0.82031,0.35547 1.65234,0.68359 2.49609,0.99219 0.83985,0.30859 1.6875,0.59375 2.54688,0.85547 0.85547,0.25781 1.71875,0.49609 2.58984,0.70703 0.8711,0.21094 1.7461,0.39844 2.62891,0.5625 0.88281,0.16015 1.76562,0.30078 2.65625,0.41406 0.89062,0.11328 1.78125,0.19922 2.67578,0.26172 0.89453,0.0664 1.78906,0.10156 2.68359,0.11719 0.89844,0.0117 1.79297,0 2.6875,-0.0391 0.89844,-0.0352 1.78907,-0.0977 2.6836,-0.18359 0.89062,-0.0898 1.78125,-0.19922 2.66797,-0.33984 0.88281,-0.13672 1.76562,-0.29688 2.64062,-0.48438 0.87891,-0.1875 1.749996,-0.39844 2.613276,-0.63281 0.86328,-0.23438 1.72266,-0.49219 2.57032,-0.77734 0.85157,-0.28516 1.69141,-0.58985 2.52344,-0.92188 0.83203,-0.32812 1.65625,-0.68359 2.46875,-1.05859 0.8125,-0.37891 1.61328,-0.77735 2.40235,-1.19922 0.78906,-0.42188 1.5664,-0.86328 2.33204,-1.32813 0.76562,-0.46875 1.51562,-0.95312 2.2539,-1.46093 0.73438,-0.50782 1.45704,-1.035163 2.16407,-1.582043 0.70703,-0.54687 1.39843,-1.11328 2.07422,-1.69921 0.67578,-0.58985 1.33203,-1.19141 1.97265,-1.81641 0.64063,-0.625 1.26563,-1.26563 1.8711,-1.92188 0.60156,-0.66015 1.1875,-1.33203 1.7539,-2.02343 0.56641,-0.69141 1.11328,-1.39844 1.64064,-2.1211 0.52343,-0.72265 1.03125,-1.45703 1.51562,-2.20703 0.48438,-0.75 0.94531,-1.51172 1.38672,-2.28906 0.44141,-0.77734 0.85938,-1.5625 1.25781,-2.36328 0.39453,-0.80078 0.76953,-1.60938 1.1211,-2.42969 0.34765,-0.82031 0.67578,-1.64844 0.98047,-2.48828 0.30078,-0.83984 0.58203,-1.6875 0.83593,-2.53906 0.25782,-0.85547 0.48828,-1.71485 0.69532,-2.58203 0.20703,-0.86719 0.39062,-1.74219 0.54687,-2.61719 0.15625,-0.87891 0.28906,-1.76172 0.39453,-2.64453 0.10938,-0.88672 0.19141,-1.77344 0.25,-2.66407 0.0547,-0.88671 0.0859,-1.77734 0.0937,-2.67187 0.008,-0.89063 -0.0117,-1.78125 -0.0547,-2.67188 -0.0469,-0.89062 -0.11328,-1.77734 -0.21093,-2.66406 -0.0937,-0.88672 -0.21094,-1.76953 -0.35547,-2.64844 -0.14453,-0.88281 -0.3125,-1.75781 -0.50781,-2.625 -0.19532,-0.87109 -0.41407,-1.73437 -0.65625,-2.59375 -0.24219,-0.85937 -0.51172,-1.70703 -0.80079,-2.55078 -0.29296,-0.84375 -0.60546,-1.67968 -0.94531,-2.5039 -0.33984,-0.82422 -0.69922,-1.64063 -1.08594,-2.44532 -0.38281,-0.80468 -0.78906,-1.59765 -1.21875,-2.38281 -0.42968,-0.78125 -0.88281,-1.55078 -1.35546,-2.30859 -0.47266,-0.75781 -0.96875,-1.5 -1.48438,-2.22656 -0.51562,-0.73047 -1.05079,-1.44532 -1.60548,-2.14453 -0.55859,-0.69922 -1.13281,-1.38282 -1.72656,-2.05079 -0.59375,-0.66406 -1.20703,-1.3164 -1.83984,-1.94921 -0.63282,-0.63282 -1.28125,-1.2461 -1.94532,-1.84375 -0.66797,-0.59375 -1.35156,-1.17188 -2.05078,-1.73047 -0.69922,-0.5586 -1.41015,-1.09375 -2.14062,-1.61328 -0.73047,-0.51563 -1.47266,-1.01563 -2.23047,-1.49219 -0.75782,-0.47656 -1.53126,-0.92969 -2.31251,-1.36328 -0.78516,-0.4336 -1.57813,-0.84375 -2.38672,-1.23047 -0.80469,-0.39063 -1.625,-0.75391 -2.44922,-1.09766 -0.82812,-0.34375 -1.66406,-0.66015 -2.51173,-0.95703 -0.84375,-0.29687 -1.69922,-0.56641 -2.55859,-0.81641 -0.86328,-0.24609 -1.73047,-0.47265 -2.601556,-0.67187 -0.875,-0.19922 -1.75391,-0.37109 -2.63672,-0.52344 -0.88282,-0.14844 -1.77344,-0.27344 -2.66407,-0.375 -0.89062,-0.0977 -1.78125,-0.17578 -2.67578,-0.22656 -0.89453,-0.0469 -1.79297,-0.0742 -2.6875,-0.0742 z m 0,0"
           fill-opacity="1"
           fill-rule="nonzero"
           id="path17-2"
           style="fill:#cfad52;fill-opacity:1;stroke-width:2.6767;stroke-miterlimit:4;stroke-dasharray:none" />
        <path
           fill="#f4f3f3"
           d="m 116.14912,87.676207 c 0.16797,0.14062 0.35156,0.24609 0.5625,0.3125 0.20703,0.0703 0.41797,0.0937 0.63672,0.0781 0.21484,-0.0156 0.42188,-0.0742 0.61719,-0.17187 0.19531,-0.0977 0.36328,-0.22657 0.5039,-0.39063 0.48438,-0.5625 0.95313,-1.13672 1.40625,-1.72265 0.45313,-0.58594 0.88672,-1.1836 1.30469,-1.79688 0.41797,-0.60937 0.82031,-1.23437 1.20313,-1.86719 0.38281,-0.63281 0.74609,-1.27734 1.09375,-1.93359 0.34765,-0.65234 0.67578,-1.31641 0.98437,-1.98828 0.3086,-0.67188 0.59766,-1.35547 0.86719,-2.04297 0.26953,-0.6875 0.51953,-1.38672 0.75,-2.08984 0.23047,-0.70313 0.44141,-1.41016 0.62892,-2.125 0.1914,-0.71485 0.35937,-1.4336 0.51171,-2.16016 0.14844,-0.72266 0.27735,-1.44922 0.38282,-2.18359 0.10937,-0.73047 0.19531,-1.46485 0.26172,-2.19922 0.0664,-0.73828 0.11328,-1.47657 0.13671,-2.21485 0.0234,-0.73828 0.0273,-1.47656 0.008,-2.21875 -0.0156,-0.73828 -0.0547,-1.47656 -0.11719,-2.21093 -0.0586,-0.73829 -0.13672,-1.47266 -0.23828,-2.20704 -0.10156,-0.73046 -0.22656,-1.46093 -0.36719,-2.1875 -0.14453,-0.72265 -0.30859,-1.44531 -0.49219,-2.16015 -0.1836,-0.71875 -0.38673,-1.42969 -0.60938,-2.13281 -0.22656,-0.70704 -0.46875,-1.40235 -0.73438,-2.09375 -0.26172,-0.69141 -0.54687,-1.375 -0.84765,-2.05079 -0.30469,-0.67578 -0.625,-1.33984 -0.96485,-2 -0.34375,-0.65625 -0.69922,-1.30468 -1.07812,-1.9414 -0.37891,-0.63672 -0.77344,-1.26172 -1.1875,-1.875 -0.41016,-0.61719 -0.83985,-1.21875 -1.28906,-1.8086 -0.44532,-0.59375 -0.91016,-1.17187 -1.39063,-1.73437 -0.48047,-0.56641 -0.97656,-1.11719 -1.48437,-1.65234 -0.51172,-0.53516 -1.03907,-1.0586 -1.58204,-1.56641 -0.53906,-0.50781 -1.09375,-1 -1.66406,-1.47656 -0.5664,-0.47266 -1.14845,-0.9336 -1.7461,-1.37891 -0.59375,-0.4414 -1.19922,-0.86719 -1.82031,-1.27734 -0.61719,-0.41016 -1.25,-0.80078 -1.89063,-1.17578 -0.64062,-0.375 -1.29297,-0.73047 -1.95312,-1.06641 -0.66407,-0.33594 -1.33594,-0.65625 -2.01563,-0.95312 -0.6797,-0.30079 -1.3672,-0.58204 -2.06251,-0.84375 -0.69531,-0.25782 -1.39844,-0.5 -2.10547,-0.72266 -0.710936,-0.22266 -1.425776,-0.42188 -2.144526,-0.60156 -0.72266,-0.1836 -1.44922,-0.34375 -2.17969,-0.48438 -0.72656,-0.14062 -1.46093,-0.26172 -2.19922,-0.35937 -0.73437,-0.10157 -1.47656,-0.17969 -2.21484,-0.23438 -0.74219,-0.0586 -1.48437,-0.0977 -2.22656,-0.11328 -0.7461,-0.0156 -1.48828,-0.0117 -2.23047,0.0156 -0.74219,0.0273 -1.48438,0.0703 -2.22656,0.14062 -0.73828,0.0664 -1.47657,0.15234 -2.21485,0.26172 -0.73437,0.10937 -1.46484,0.23828 -2.19531,0.39062 -0.72656,0.14844 -1.44922,0.32032 -2.16797,0.50782 -0.71875,0.1914 -1.42969,0.40234 -2.13672,0.63281 -0.70703,0.23047 -1.40625,0.48047 -2.09765,0.75 -0.69141,0.27344 -1.37891,0.5625 -2.05469,0.86719 -0.67578,0.30859 -1.33984,0.63672 -1.99609,0.98437 -0.66016,0.34375 -1.30469,0.70703 -1.94141,1.08985 -0.63672,0.38281 -1.26172,0.78125 -1.875,1.19921 -0.61719,0.41797 -1.21484,0.85157 -1.80469,1.30469 -0.58984,0.44922 -1.16797,0.91797 -1.73047,1.39844 -0.5625,0.48437 -1.10937,0.98437 -1.64453,1.49609 -0.53515,0.51563 -1.05078,1.04688 -1.55859,1.58985 -0.50391,0.54296 -0.99219,1.09765 -1.46485,1.66796 -0.47265,0.57422 -0.92578,1.15625 -1.36718,1.75391 -0.4375,0.59375 -0.85938,1.20313 -1.26563,1.82422 -0.40625,0.62109 -0.79297,1.25 -1.16015,1.89453 -0.3711,0.64063 -0.71875,1.29297 -1.05079,1.95313 -0.33203,0.66015 -0.64453,1.33203 -0.9414,2.01171 -0.29297,0.67969 -0.56641,1.36719 -0.82031,2.0625 -0.25391,0.69141 -0.49219,1.39454 -0.70704,2.10157 -0.21484,0.70703 -0.40625,1.42187 -0.58203,2.14062 -0.17578,0.71875 -0.32812,1.44141 -0.46093,2.16797 -0.13282,0.72656 -0.2461,1.45703 -0.33985,2.19141 -0.0898,0.73437 -0.16015,1.46875 -0.21094,2.20703 -0.0508,0.73828 -0.082,1.47656 -0.0898,2.21484 -0.008,0.74219 0.008,1.48047 0.0391,2.21875 0.0352,0.73828 0.0898,1.47656 0.16407,2.21094 0.0781,0.73437 0.17578,1.46875 0.29296,2.19922 0.11719,0.73047 0.25391,1.45703 0.41407,2.17969 0.15625,0.71875 0.33593,1.4375 0.53515,2.14843 0.19922,0.71485 0.41797,1.42188 0.66016,2.1211 0.23828,0.69922 0.49609,1.39062 0.77734,2.07812 0.27735,0.6836 0.57813,1.35938 0.89453,2.03125 0.31641,0.66797 0.65235,1.32813 1.00782,1.97656 0.35547,0.64844 0.72656,1.28907 1.11718,1.91797 0.39454,0.62891 0.80079,1.2461 1.22657,1.85157 0.42968,0.60546 0.87109,1.19921 1.33203,1.78125 0.45703,0.57812 0.93359,1.14843 1.42578,1.70312 0.49219,0.55078 1,1.09375 1.52344,1.61719 0.52343,0.52734 1.0625,1.03515 1.61328,1.53125 0.55078,0.49609 1.11719,0.97656 1.69531,1.4414 0.57813,0.46094 1.17188,0.91016 1.77734,1.33985 0.60157,0.42969 1.21875,0.84375 1.84766,1.23828 0.62891,0.39453 1.26563,0.77344 1.91797,1.13281 0.64844,0.35938 1.30859,0.70313 1.97656,1.02735 0.66797,0.32031 1.34375,0.625 2.03125,0.91015 0.6875,0.28516 1.37891,0.55078 2.08203,0.79688 0.69922,0.24609 1.41016,0.46875 2.1211,0.67578 0.71484,0.20703 1.43359,0.39453 2.16015,0.558593 0.72266,0.16406 1.45313,0.3086 2.1836,0.4336 0.73437,0.125 1.46875,0.23046 2.21093,0.3125 0.73829,0.0859 1.47657,0.14843 2.21875,0.1875 0.74219,0.043 1.48829,0.0625 2.23047,0.0625 2.21485,0.0117 4.41797,-0.16797 6.60547,-0.53125 2.1875,-0.36719 4.32422,-0.910163 6.417966,-1.636723 2.09375,-0.72657 4.10939,-1.625 6.05079,-2.69532 1.9375,-1.0664 3.77344,-2.28906 5.50391,-3.66796 0.16015,-0.14063 0.28516,-0.30079 0.38282,-0.48829 0.0977,-0.1875 0.15625,-0.38671 0.17578,-0.59765 0.0195,-0.20703 -0.004,-0.41406 -0.0625,-0.61719 -0.0625,-0.19922 -0.15625,-0.38281 -0.28906,-0.54687 -0.12892,-0.16797 -0.28907,-0.30079 -0.47267,-0.40625 -0.18359,-0.10157 -0.3789,-0.17188 -0.58984,-0.19922 -0.21094,-0.0273 -0.41797,-0.0156 -0.62109,0.0352 -0.20704,0.0508 -0.39454,0.13672 -0.56641,0.25782 -1.58594,1.26562 -3.26953,2.38671 -5.04688,3.36718 -1.77735,0.98047 -3.62891,1.80078 -5.54688,2.46875 -1.917966,0.66407 -3.878906,1.16407 -5.886716,1.5 -2.00391,0.33203 -4.02344,0.4961 -6.05469,0.48828 -0.68359,0 -1.36328,-0.0195 -2.04297,-0.0586 -0.67968,-0.0391 -1.35937,-0.0937 -2.03515,-0.17187 -0.67969,-0.0742 -1.35547,-0.17188 -2.02735,-0.28516 -0.66796,-0.11328 -1.33593,-0.24609 -2.0039,-0.39844 -0.66406,-0.15234 -1.32031,-0.32422 -1.97656,-0.51172 -0.65625,-0.1914 -1.30469,-0.39843 -1.94532,-0.62109 -0.64453,-0.22656 -1.27734,-0.46875 -1.90625,-0.73047 -0.63281,-0.26172 -1.25,-0.53906 -1.86328,-0.83594 -0.61328,-0.29687 -1.21875,-0.60937 -1.8164,-0.9375 -0.59375,-0.33203 -1.17969,-0.67578 -1.75391,-1.03906 -0.57813,-0.36328 -1.14063,-0.74219 -1.69531,-1.13672 -0.55469,-0.39453 -1.09766,-0.80469 -1.62891,-1.23047 -0.53125,-0.42578 -1.04687,-0.86328 -1.55469,-1.32031 -0.5039,-0.45312 -0.99609,-0.92187 -1.47656,-1.40234 -0.48047,-0.48047 -0.94531,-0.97657 -1.39453,-1.48438 -0.45313,-0.50781 -0.89063,-1.02734 -1.3125,-1.5625 -0.42188,-0.53125 -0.82813,-1.07422 -1.21875,-1.6289 -0.39063,-0.5586 -0.76172,-1.1211 -1.12109,-1.69922 -0.35938,-0.57813 -0.70313,-1.16407 -1.02735,-1.75782 -0.32422,-0.59375 -0.63281,-1.19921 -0.92187,-1.8125 -0.29297,-0.61328 -0.56641,-1.23437 -0.82032,-1.86328 -0.25781,-0.6289 -0.49609,-1.26172 -0.71484,-1.90234 -0.21875,-0.64453 -0.42187,-1.28906 -0.60156,-1.94141 -0.1836,-0.65625 -0.34766,-1.3125 -0.49219,-1.97265 -0.14844,-0.66407 -0.27344,-1.32813 -0.38281,-2 -0.10547,-0.66797 -0.19531,-1.33985 -0.26563,-2.01563 -0.0664,-0.67187 -0.11718,-1.34765 -0.14843,-2.02344 -0.0312,-0.67968 -0.043,-1.35546 -0.0352,-2.03515 0.008,-0.67578 0.0312,-1.35156 0.0781,-2.03125 0.0469,-0.67578 0.11329,-1.34766 0.19532,-2.02344 0.0859,-0.67187 0.1875,-1.33984 0.30859,-2.00781 0.125,-0.66797 0.26563,-1.32813 0.42578,-1.98828 0.16016,-0.66016 0.33594,-1.3125 0.53516,-1.96094 0.19531,-0.64844 0.41015,-1.29297 0.64453,-1.92969 0.23437,-0.63672 0.48437,-1.26562 0.75391,-1.88672 0.26953,-0.625 0.55859,-1.23828 0.86328,-1.84375 0.30468,-0.60547 0.625,-1.20312 0.96093,-1.79297 0.33985,-0.58984 0.69532,-1.16796 1.06641,-1.73437 0.37109,-0.57031 0.75781,-1.12891 1.16016,-1.67578 0.40234,-0.54297 0.82031,-1.07813 1.2539,-1.60156 0.4336,-0.52344 0.87891,-1.03516 1.34375,-1.53516 0.46094,-0.49609 0.9375,-0.98047 1.42578,-1.45313 0.49219,-0.47265 0.99219,-0.92968 1.50782,-1.37109 0.51562,-0.4414 1.04687,-0.87109 1.58593,-1.28515 0.53907,-0.41407 1.08985,-0.8125 1.65235,-1.19532 0.5625,-0.38281 1.13672,-0.74609 1.71875,-1.09765 0.58594,-0.35157 1.17969,-0.6836 1.78125,-1 0.60156,-0.31641 1.21094,-0.61719 1.83203,-0.89844 0.62109,-0.28516 1.24609,-0.55078 1.88281,-0.79688 0.63281,-0.24609 1.27344,-0.47656 1.92188,-0.6875 0.64843,-0.21093 1.30078,-0.40625 1.95703,-0.57812 0.66015,-0.17578 1.32422,-0.33203 1.99219,-0.46875 0.66406,-0.13672 1.33593,-0.25781 2.01171,-0.35547 0.67188,-0.10156 1.34766,-0.18359 2.02735,-0.24219 0.67969,-0.0625 1.35937,-0.10547 2.03906,-0.1289 0.68359,-0.0234 1.36328,-0.0273 2.04688,-0.0117 0.67968,0.0117 1.35937,0.0469 2.03906,0.10156 0.67969,0.0508 1.35937,0.12109 2.03125,0.21484 0.67578,0.0898 1.34765,0.19922 2.01953,0.32813 0.66797,0.12891 1.33203,0.27734 1.99219,0.44141 0.66406,0.16796 1.3164,0.35156 1.96875,0.55468 0.648426,0.20313 1.292966,0.42578 1.929676,0.66407 0.64063,0.23828 1.26954,0.49609 1.89454,0.76953 0.62109,0.27734 1.23829,0.5664 1.84376,0.8789 0.60546,0.3086 1.20312,0.63282 1.78906,0.97657 0.58984,0.34375 1.16797,0.69921 1.73437,1.07421 0.57032,0.37891 1.125,0.76954 1.67188,1.17579 0.54297,0.40625 1.07812,0.82812 1.59765,1.26171 0.52344,0.4375 1.03125,0.88672 1.52736,1.35157 0.49609,0.46484 0.97656,0.94531 1.44531,1.4375 0.46875,0.49218 0.92578,0.99609 1.36328,1.51562 0.44141,0.51563 0.86719,1.04688 1.27735,1.58594 0.41015,0.54297 0.80078,1.09375 1.17968,1.66015 0.37891,0.5625 0.74219,1.13672 1.08985,1.71875 0.34375,0.58594 0.67187,1.17969 0.98437,1.78125 0.3125,0.60157 0.60938,1.21485 0.88672,1.83204 0.27734,0.62109 0.53516,1.24609 0.77734,1.8789 0.24219,0.63281 0.46485,1.27344 0.67188,1.92188 0.20703,0.64453 0.39062,1.29687 0.5625,1.95312 0.16797,0.65625 0.31641,1.31641 0.44922,1.98438 0.1289,0.66406 0.24219,1.33203 0.33594,2.0039 0.0898,0.67188 0.16406,1.34375 0.21875,2.01953 0.0547,0.67579 0.0898,1.35157 0.10546,2.03125 0.0195,0.67579 0.0156,1.35547 -0.008,2.03125 -0.0195,0.67579 -0.0625,1.35157 -0.125,2.02735 -0.0586,0.67578 -0.14062,1.34765 -0.23828,2.01953 -0.0977,0.67187 -0.21484,1.33984 -0.35156,2 -0.13672,0.66406 -0.29297,1.32422 -0.46875,1.98047 -0.17188,0.65625 -0.36719,1.30469 -0.57813,1.94922 -0.21093,0.64453 -0.4414,1.28125 -0.6875,1.91406 -0.24609,0.63281 -0.51172,1.25391 -0.79687,1.87109 -0.28125,0.61719 -0.58203,1.22657 -0.89844,1.82422 -0.31641,0.60156 -0.65234,1.19141 -1.00391,1.77344 -0.35156,0.58203 -0.71875,1.15234 -1.10156,1.71094 -0.38281,0.5625 -0.78125,1.10937 -1.19531,1.64843 -0.41406,0.53907 -0.84375,1.0625 -1.28906,1.57813 -0.14453,0.16406 -0.2461,0.34766 -0.31641,0.55469 -0.0664,0.20703 -0.0937,0.41797 -0.0781,0.63281 0.0156,0.21484 0.0742,0.42187 0.17187,0.61328 0.0977,0.19531 0.23047,0.36328 0.39453,0.50391 z m 0,0"
           fill-opacity="1"
           fill-rule="nonzero"
           id="path19"
           style="fill:#cfad52;fill-opacity:1;stroke-width:2.6767;stroke-miterlimit:4;stroke-dasharray:none" />
        <g
           clip-path="url(#id1)"
           id="g27"
           transform="translate(-101.01493,-93.722233)"
           style="fill:#84d049;fill-opacity:1">
          <path
             fill="#00c2cb"
             d="m 182.45703,167.90234 -1.38281,-1.11718 c -1.60938,-1.30079 -6.86719,-6.20704 -6.86719,-14.66407 0,-9.29687 6.21875,-15.30078 15.83984,-15.30078 9.38282,0 15.21485,5.67188 15.21485,14.8086 0,8.53906 -4.86719,13.46093 -6.95703,15.17968 l -1.35547,1.11328 v 5.70704 h 17.29297 v -7.44141 h -5.5586 c 2.74219,-4.33594 4.12891,-9.22656 4.12891,-14.55859 0,-13.3086 -9.14844,-22.25391 -22.76563,-22.25391 -13.76953,0 -23.38281,9.35547 -23.38281,22.74609 0,4.9336 1.42188,9.8711 4.02735,14.06641 h -6.15625 v 7.44141 h 17.92187 z m 0,0"
             fill-opacity="1"
             fill-rule="nonzero"
             id="path25"
             style="fill:#84d049;fill-opacity:1" />
        </g>
      </g>
    </g>
  </g>
</svg>
