<?xml version="1.0" encoding="UTF-8" standalone="no"?>
<!-- Created with Inkscape (http://www.inkscape.org/) -->

<svg
   width="13.237825mm"
   height="13.83551mm"
   viewBox="0 0 13.237826 13.83551"
   version="1.1"
   id="svg4608"
   inkscape:version="1.1.1 (3bf5ae0d25, 2021-09-20)"
   sodipodi:docname="Settings-Icon.svg"
   xmlns:inkscape="http://www.inkscape.org/namespaces/inkscape"
   xmlns:sodipodi="http://sodipodi.sourceforge.net/DTD/sodipodi-0.dtd"
   xmlns="http://www.w3.org/2000/svg"
   xmlns:svg="http://www.w3.org/2000/svg">
  <sodipodi:namedview
     id="namedview4610"
     pagecolor="#ffffff"
     bordercolor="#666666"
     borderopacity="1.0"
     inkscape:pageshadow="2"
     inkscape:pageopacity="0.0"
     inkscape:pagecheckerboard="0"
     inkscape:document-units="mm"
     showgrid="false"
     inkscape:zoom="2.6547419"
     inkscape:cx="11.488876"
     inkscape:cy="42.377001"
     inkscape:window-width="1284"
     inkscape:window-height="969"
     inkscape:window-x="169"
     inkscape:window-y="31"
     inkscape:window-maximized="0"
     inkscape:current-layer="layer1" />
  <defs
     id="defs4605">
    <clipPath
       id="id1">
      <path
         d="m 164.53516,129.37891 h 49.96875 v 44.25 h -49.96875 z m 0,0"
         clip-rule="nonzero"
         id="path4" />
    </clipPath>
  </defs>
  <g
     inkscape:label="Layer 1"
     inkscape:groupmode="layer"
     id="layer1"
     transform="translate(-55.403258,-74.88269)">
    <path
       d="m 61.079429,74.88269 c -0.5172,0 -0.94338,0.42618 -0.94338,0.94338 v 0.65834 c -0.68148,0.24214 -1.30022,0.60897 -1.83256,1.07596 l -0.5749,-0.3243 c -0.45064,-0.25202 -1.02991,-0.0926 -1.28237,0.3586 l -0.92361,1.64591 c -0.254,0.45415 -0.0886,1.0343 0.36354,1.28731 l 0.5749,0.3243 c -0.0526,0.30947 -0.0982,0.6238 -0.0982,0.94819 0,0.32417 0.0458,0.6341 0.0982,0.94338 l -0.5749,0.3243 c -0.45215,0.25289 -0.61754,0.83316 -0.36354,1.28731 l 0.92361,1.64591 c 0.25235,0.45117 0.83173,0.61074 1.28237,0.3586 l 0.5749,-0.31936 c 0.53188,0.46619 1.15206,0.8292 1.83256,1.07102 v 0.66328 c 0,0.5172 0.42618,0.94338 0.94338,0.94338 h 1.886629 c 0.517203,0 0.943386,-0.42618 0.943386,-0.94338 v -0.66328 c 0.678972,-0.24182 1.296826,-0.60592 1.827756,-1.07102 l 0.574897,0.31936 c 0.450636,0.25202 1.034827,0.0926 1.287195,-0.3586 0.312562,-0.57665 0.644076,-1.15788 0.923621,-1.64591 0.253995,-0.45415 0.08367,-1.0343 -0.368488,-1.28731 l -0.574897,-0.3243 c 0.05253,-0.30928 0.103201,-0.61921 0.103201,-0.94338 0,-0.32453 -0.05055,-0.63872 -0.103201,-0.94819 l 0.574897,-0.3243 c 0.452152,-0.2529 0.622485,-0.83316 0.368488,-1.28731 -0.32966,-0.56776 -0.657579,-1.16173 -0.923621,-1.64591 -0.252348,-0.45117 -0.836671,-0.61074 -1.287195,-0.3586 L 65.7372,77.55542 c -0.530791,-0.4651 -1.148784,-0.82932 -1.827756,-1.07101 v -0.65834 c 0,-0.5172 -0.426183,-0.94338 -0.943386,-0.94338 z m 0,0.62882 h 1.886629 c 0.179638,0 0.314416,0.13478 0.314416,0.31441 v 0.86476 c 0,0.1328 0.09421,0.26024 0.221093,0.29973 0.755505,0.23183 1.431389,0.63663 1.989835,1.16927 0.0975,0.0925 0.257062,0.11138 0.373428,0.0442 l 0.7566,-0.42257 c 0.157486,-0.0881 0.339656,-0.0341 0.427503,0.12284 l 0.92362,1.64591 c 0.08621,0.15397 0.02818,0.34512 -0.127765,0.43231 l -0.751659,0.42255 c -0.115266,0.0654 -0.179967,0.20936 -0.15233,0.33899 0.07271,0.34041 0.112952,0.69388 0.112952,1.05632 0,0.36246 -0.04035,0.71098 -0.112952,1.05139 -0.02764,0.12964 0.03706,0.27352 0.15233,0.33899 l 0.751659,0.42256 c 0.15595,0.0873 0.213856,0.27834 0.127765,0.4323 l -0.92362,1.64591 c -0.08774,0.15694 -0.269896,0.2109 -0.427503,0.12283 l -0.7566,-0.42256 c -0.116364,-0.0671 -0.275926,-0.0482 -0.373428,0.0442 -0.558446,0.53278 -1.234218,0.93746 -1.989835,1.16927 -0.128422,0.0399 -0.222958,0.1701 -0.221093,0.30467 v 0.86475 c 0,0.17964 -0.134784,0.31442 -0.314416,0.31442 h -1.886629 c -0.17963,0 -0.31441,-0.13479 -0.31441,-0.31442 v -0.86475 c 10e-4,-0.13566 -0.0957,-0.2665 -0.22603,-0.30467 -0.7555,-0.23183 -1.4314,-0.63663 -1.98984,-1.16927 -0.0975,-0.0925 -0.25706,-0.11125 -0.37343,-0.0442 l -0.7566,0.42256 c -0.15749,0.0882 -0.33471,0.0341 -0.42255,-0.12283 -0.32966,-0.56776 -0.65759,-1.16172 -0.92363,-1.64591 -0.0862,-0.15398 -0.0331,-0.34512 0.12282,-0.4323 l 0.75166,-0.42256 c 0.11523,-0.0654 0.17997,-0.20935 0.15233,-0.33899 -0.0727,-0.34041 -0.10811,-0.68893 -0.10811,-1.05139 0,-0.36244 0.0354,-0.71591 0.10811,-1.05632 0.0276,-0.12963 -0.037,-0.27364 -0.15233,-0.33899 l -0.75166,-0.42255 c -0.15594,-0.0873 -0.20903,-0.27835 -0.12282,-0.43231 0.31256,-0.57665 0.64407,-1.15788 0.92363,-1.64591 0.0877,-0.15694 0.26495,-0.2109 0.42255,-0.12284 l 0.7566,0.42257 c 0.11632,0.0671 0.27593,0.0482 0.37343,-0.0442 0.55844,-0.53278 1.23421,-0.93746 1.98984,-1.16927 0.12863,-0.0377 0.22515,-0.1656 0.22603,-0.29973 v -0.86476 c 0,-0.17963 0.13478,-0.31441 0.31441,-0.31441 z m 0.94339,3.14443 c -1.7329,0 -3.14443,1.41154 -3.14443,3.14444 0,1.73289 1.41153,3.14442 3.14443,3.14442 1.732884,0 3.144425,-1.41153 3.144425,-3.14442 0,-1.7329 -1.411541,-3.14444 -3.144425,-3.14444 z m 0,0.62883 c 1.393006,0 2.515595,1.12246 2.515595,2.51561 0,1.39301 -1.122449,2.5156 -2.515595,2.5156 -1.39302,0 -2.51561,-1.12257 -2.51561,-2.5156 0,-1.39305 1.12257,-2.51561 2.51561,-2.51561 z"
       id="path64"
       style="fill:#a8afa5;fill-opacity:1;stroke-width:0.0280753" />
  </g>
</svg>
