<?xml version="1.0" encoding="UTF-8" standalone="no"?>
<!-- Created with Inkscape (http://www.inkscape.org/) -->

<svg
   width="58.878403mm"
   height="61.686817mm"
   viewBox="0 0 58.878403 61.686817"
   version="1.1"
   id="svg1235"
   inkscape:version="1.1.1 (3bf5ae0d25, 2021-09-20)"
   sodipodi:docname="Sun-25.svg"
   xmlns:inkscape="http://www.inkscape.org/namespaces/inkscape"
   xmlns:sodipodi="http://sodipodi.sourceforge.net/DTD/sodipodi-0.dtd"
   xmlns="http://www.w3.org/2000/svg"
   xmlns:svg="http://www.w3.org/2000/svg">
  <sodipodi:namedview
     id="namedview1237"
     pagecolor="#ffffff"
     bordercolor="#666666"
     borderopacity="1.0"
     inkscape:pageshadow="2"
     inkscape:pageopacity="0.0"
     inkscape:pagecheckerboard="0"
     inkscape:document-units="mm"
     showgrid="false"
     inkscape:zoom="1.877186"
     inkscape:cx="169.13615"
     inkscape:cy="86.033032"
     inkscape:window-width="2560"
     inkscape:window-height="1017"
     inkscape:window-x="-8"
     inkscape:window-y="-8"
     inkscape:window-maximized="1"
     inkscape:current-layer="layer1" />
  <defs
     id="defs1232" />
  <g
     inkscape:label="Layer 1"
     inkscape:groupmode="layer"
     id="layer1"
     transform="translate(-70.22523,-91.145854)">
    <path
       d="m 111.3168,121.92064 c 0,1.16514 -1.50789,2.05635 -1.85072,3.15313 -0.3428,1.09677 0.3428,2.7414 -0.3428,3.63268 -0.68561,0.89128 -2.46747,0.75397 -3.35862,1.4396 -0.89118,0.68561 -1.30239,2.39918 -2.39917,2.7414 -1.0279,0.3428 -2.39916,-0.82234 -3.564226,-0.82234 -1.165134,0 -2.535885,1.16513 -3.564239,0.82234 -1.096754,-0.3428 -1.507894,-2.05635 -2.399168,-2.7414 -0.891174,-0.6856 -2.673085,-0.54839 -3.358612,-1.4396 -0.685534,-0.89122 0,-2.5359 -0.342797,-3.63268 -0.342807,-1.02792 -1.850729,-1.98744 -1.850729,-3.15313 0,-1.16513 1.507902,-2.05635 1.850729,-3.15313 0.342797,-1.09677 -0.342807,-2.7414 0.342797,-3.63268 0.685597,-0.89128 2.467468,-0.75397 3.358612,-1.4396 0.891174,-0.68561 1.302394,-2.39918 2.399168,-2.74141 1.027914,-0.3428 2.399165,0.82235 3.564239,0.82235 1.165126,0 2.535876,-1.16514 3.564226,-0.82235 1.09677,0.34281 1.5079,2.05636 2.39917,2.74141 0.89117,0.6856 2.67308,0.54839 3.35862,1.4396 0.68553,0.89122 0,2.5359 0.3428,3.63268 0.3428,1.0284 1.85072,1.98793 1.85072,3.15313 z m -8.84199,-14.53071 c 0,-1.43961 -1.16512,-2.60468 -2.604666,-2.60468 -1.439604,0 -2.604665,1.16514 -2.604665,2.60468 0,1.43961 1.165131,2.60468 2.604665,2.60468 1.439596,0 2.604666,-1.16513 2.604666,-2.60468 z m -9.04712,1.09678 c -0.822337,-1.16514 -2.467468,-1.43961 -3.632649,-0.54839 -1.165132,0.82235 -1.439602,2.46748 -0.548387,3.63268 0.822334,1.16514 2.467455,1.43961 3.632649,0.54839 1.096764,-0.82234 1.370691,-2.46748 0.548387,-3.63268 z m -6.716871,6.23737 c -1.3707,-0.41117 -2.8103,0.27395 -3.28984,1.6451 -0.41118,1.3707 0.27395,2.81031 1.6451,3.28985 1.3707,0.41117 2.81031,-0.27396 3.28985,-1.64511 0.47954,-1.3707 -0.27443,-2.8103 -1.64511,-3.28984 z m -1.78243,9.04722 c -1.3707,0.41117 -2.12465,1.91915 -1.64511,3.28984 0.41117,1.3707 1.91915,2.12465 3.28985,1.64511 1.37069,-0.48002 2.12465,-1.91915 1.6451,-3.28985 -0.47954,-1.3707 -1.91914,-2.12465 -3.28984,-1.6451 z m 3.83817,8.29371 c -0.82234,1.16513 -0.61676,2.8103 0.548385,3.63267 1.165131,0.82235 2.810292,0.61676 3.632659,-0.54839 0.822364,-1.16515 0.616757,-2.8103 -0.548387,-3.63267 -1.165134,-0.89118 -2.741385,-0.61676 -3.632657,0.54839 z m 8.01938,4.4548 c 0,1.4396 1.165124,2.60468 2.604668,2.60468 1.439533,0 2.604663,-1.16514 2.604663,-2.60468 0,-1.43961 -1.16513,-2.60469 -2.604663,-2.60469 -1.439604,3.5e-4 -2.604668,1.16562 -2.604668,2.60469 z m 9.115491,-1.09654 c 0.82234,1.16514 2.46747,1.43961 3.63265,0.54839 1.16513,-0.82234 1.4396,-2.46748 0.54838,-3.63267 -0.82233,-1.16514 -2.46746,-1.43961 -3.63264,-0.54839 -1.16514,0.82234 -1.43912,2.46748 -0.54839,3.63267 z m 6.71722,-6.23735 c 1.3707,0.41117 2.81031,-0.27396 3.28985,-1.64511 0.41117,-1.3707 -0.27395,-2.8103 -1.6451,-3.28985 -1.3707,-0.41117 -2.8103,0.27396 -3.28984,1.64511 -0.47955,1.3707 0.27395,2.80982 1.64509,3.28985 z m 1.71341,-8.97879 c 1.37069,-0.41118 2.12465,-1.91915 1.6451,-3.28985 -0.48002,-1.37119 -1.85072,-2.12514 -3.22191,-1.64511 -1.37069,0.48002 -2.12464,1.91915 -1.6451,3.28985 0.48002,1.3707 1.91963,2.05635 3.22191,1.64511 z m -3.83829,-8.36201 c 0.82235,-1.16514 0.61676,-2.81032 -0.54838,-3.63268 -1.16514,-0.82235 -2.8103,-0.61676 -3.63265,0.54839 -0.82235,1.16513 -0.61676,2.81031 0.54838,3.63268 1.16513,0.82235 2.8098,0.61676 3.63265,-0.54839 z"
       id="path73"
       style="fill:#ffdf1b;fill-opacity:1;stroke-width:0.122395"
       sodipodi:nodetypes="scsccsccscscsccsccccssssssccccccccccccccccssccssscsccccccccccccccccsccc" />
  </g>
</svg>
