<?xml version="1.0" encoding="UTF-8" standalone="no"?>
<!-- Created with Inkscape (http://www.inkscape.org/) -->

<svg
   width="58.878403mm"
   height="61.686817mm"
   viewBox="0 0 58.878403 61.686817"
   version="1.1"
   id="svg1235"
   inkscape:version="1.1.1 (3bf5ae0d25, 2021-09-20)"
   sodipodi:docname="Sun-full-icon.svg"
   xmlns:inkscape="http://www.inkscape.org/namespaces/inkscape"
   xmlns:sodipodi="http://sodipodi.sourceforge.net/DTD/sodipodi-0.dtd"
   xmlns="http://www.w3.org/2000/svg"
   xmlns:svg="http://www.w3.org/2000/svg">
  <sodipodi:namedview
     id="namedview1237"
     pagecolor="#ffffff"
     bordercolor="#666666"
     borderopacity="1.0"
     inkscape:pageshadow="2"
     inkscape:pageopacity="0.0"
     inkscape:pagecheckerboard="0"
     inkscape:document-units="mm"
     showgrid="false"
     inkscape:zoom="0.66368547"
     inkscape:cx="131.83956"
     inkscape:cy="216.21688"
     inkscape:window-width="2560"
     inkscape:window-height="1017"
     inkscape:window-x="-8"
     inkscape:window-y="-8"
     inkscape:window-maximized="1"
     inkscape:current-layer="layer1" />
  <defs
     id="defs1232" />
  <g
     inkscape:label="Layer 1"
     inkscape:groupmode="layer"
     id="layer1"
     transform="translate(-70.22523,-91.145854)">
    <path
       d="m 111.3168,121.92064 c 0,1.16514 -1.50789,2.05635 -1.85072,3.15313 -0.3428,1.09677 0.3428,2.7414 -0.3428,3.63268 -0.68561,0.89128 -2.46747,0.75397 -3.35862,1.4396 -0.89118,0.68561 -1.30239,2.39918 -2.39917,2.7414 -1.0279,0.3428 -2.39916,-0.82234 -3.564226,-0.82234 -1.165134,0 -2.535885,1.16513 -3.564239,0.82234 -1.096754,-0.3428 -1.507894,-2.05635 -2.399168,-2.7414 -0.891174,-0.6856 -2.673085,-0.54839 -3.358612,-1.4396 -0.685534,-0.89122 0,-2.5359 -0.342797,-3.63268 -0.342807,-1.02792 -1.850729,-1.98744 -1.850729,-3.15313 0,-1.16513 1.507902,-2.05635 1.850729,-3.15313 0.342797,-1.09677 -0.342807,-2.7414 0.342797,-3.63268 0.685597,-0.89128 2.467468,-0.75397 3.358612,-1.4396 0.891174,-0.68561 1.302394,-2.39918 2.399168,-2.74141 1.027914,-0.3428 2.399165,0.82235 3.564239,0.82235 1.165126,0 2.535876,-1.16514 3.564226,-0.82235 1.09677,0.34281 1.5079,2.05636 2.39917,2.74141 0.89117,0.6856 2.67308,0.54839 3.35862,1.4396 0.68553,0.89122 0,2.5359 0.3428,3.63268 0.3428,1.0284 1.85072,1.98793 1.85072,3.15313 z m -8.84199,-14.53071 c 0,-1.43961 -1.16512,-2.60468 -2.604666,-2.60468 -1.439604,0 -2.604665,1.16514 -2.604665,2.60468 0,1.43961 1.165131,2.60468 2.604665,2.60468 1.439596,0 2.604666,-1.16513 2.604666,-2.60468 z m -0.47954,-5.07179 c 0,-1.16514 -0.89117,-2.05636 -2.056336,-2.05636 -1.165134,0 -2.056351,0.89119 -2.056351,2.05636 0,1.16514 0.891177,2.05635 2.056351,2.05635 1.165126,0 2.056336,-0.95954 2.056336,-2.05635 z m -0.54838,-5.140576 c 0,-0.82234 -0.6856,-1.5079 -1.507896,-1.5079 -0.822297,0 -1.507904,0.6856 -1.507904,1.5079 0,0.8223 0.685607,1.50791 1.507904,1.50791 0.822296,0 1.507896,-0.68561 1.507896,-1.50791 z m -0.54839,-5.07216 c 0,-0.54839 -0.41117,-0.95955 -0.959546,-0.95955 -0.548387,0 -0.959547,0.41118 -0.959547,0.95955 0,0.54838 0.41117,0.95955 0.959547,0.95955 0.548386,0 0.959546,-0.47954 0.959546,-0.95955 z m -7.47081,16.381306 c -0.822337,-1.16514 -2.467468,-1.43961 -3.632649,-0.54839 -1.165132,0.82235 -1.439602,2.46748 -0.548387,3.63268 0.822334,1.16514 2.467455,1.43961 3.632649,0.54839 1.096764,-0.82234 1.370691,-2.46748 0.548387,-3.63268 z m -3.495452,-3.76988 c -0.685604,-0.89118 -1.919139,-1.09676 -2.878709,-0.48002 -0.95955,0.61676 -1.09677,1.91915 -0.48002,2.87872 0.61676,0.95955 1.91915,1.09677 2.878712,0.48002 0.959547,-0.68512 1.165134,-1.98744 0.480017,-2.87872 z m -3.427039,-3.83818 c -0.48002,-0.6856 -1.43961,-0.82234 -2.12465,-0.3428 -0.68561,0.48002 -0.82235,1.43961 -0.3428,2.12465 0.48001,0.68561 1.4396,0.82235 2.12464,0.3428 0.68514,-0.47954 0.82235,-1.43911 0.34281,-2.12465 z m -3.42705,-3.838166 c -0.3428,-0.41117 -0.89118,-0.54839 -1.3707,-0.20558 -0.41117,0.3428 -0.54839,0.89117 -0.20559,1.37069 0.34281,0.41118 0.89118,0.54839 1.3707,0.20559 0.41117,-0.34281 0.54791,-0.89071 0.20559,-1.3707 z m 3.63267,17.683596 c -1.3707,-0.41117 -2.8103,0.27395 -3.28984,1.6451 -0.41118,1.3707 0.27395,2.81031 1.6451,3.28985 1.3707,0.41117 2.81031,-0.27396 3.28985,-1.64511 0.47954,-1.3707 -0.27443,-2.8103 -1.64511,-3.28984 z m -5.07216,-1.02792 c -1.09676,-0.34281 -2.26185,0.20558 -2.60468,1.3024 -0.3428,1.09676 0.20559,2.26185 1.3024,2.60468 1.09677,0.3428 2.26186,-0.20559 2.60469,-1.3024 0.3428,-1.09725 -0.20559,-2.26234 -1.30241,-2.60468 z m -5.00337,-1.09677 c -0.82235,-0.27396 -1.64511,0.20559 -1.91915,0.95955 -0.27395,0.82235 0.20559,1.64511 0.95955,1.91915 0.75396,0.27404 1.64511,-0.20559 1.91915,-0.95955 0.27395,-0.75398 -0.13722,-1.64511 -0.95955,-1.91915 z m -5.00386,-1.0284 c -0.48002,-0.13721 -1.02792,0.13722 -1.2335,0.61676 -0.13721,0.48002 0.13722,1.02792 0.61676,1.23349 0.48002,0.20559 1.02792,-0.13721 1.2335,-0.61675 0.13721,-0.54791 -0.13674,-1.09629 -0.61676,-1.2335 z m 13.29696,12.20031 c -1.3707,0.41117 -2.12465,1.91915 -1.64511,3.28984 0.41117,1.3707 1.91915,2.12465 3.28985,1.64511 1.37069,-0.48002 2.12465,-1.91915 1.6451,-3.28985 -0.47954,-1.3707 -1.91914,-2.12465 -3.28984,-1.6451 z m -4.66055,2.05635 c -1.09676,0.34281 -1.64511,1.5079 -1.3024,2.60468 0.3428,1.09677 1.5079,1.64511 2.60468,1.30241 1.09677,-0.34281 1.64511,-1.50791 1.3024,-2.60469 -0.41165,-1.02792 -1.57681,-1.6451 -2.60468,-1.3024 z m -4.72945,2.12465 c -0.82235,0.27396 -1.23349,1.09677 -0.95955,1.91915 0.27394,0.82238 1.09677,1.23349 1.91915,0.95955 0.82238,-0.27394 1.23349,-1.09677 0.95955,-1.91915 -0.27395,-0.82238 -1.09677,-1.23349 -1.91915,-0.95955 z m -4.66104,2.05635 c -0.48002,0.13722 -0.75397,0.68561 -0.61676,1.2335 0.13722,0.48002 0.68561,0.75397 1.2335,0.61676 0.48002,-0.13722 0.75397,-0.68561 0.61676,-1.2335 -0.20511,-0.47954 -0.75349,-0.75397 -1.2335,-0.61676 z m 17.88921,2.05636 c -0.82234,1.16513 -0.61676,2.8103 0.548385,3.63267 1.165131,0.82235 2.810292,0.61676 3.632659,-0.54839 0.822364,-1.16515 0.616757,-2.8103 -0.548387,-3.63267 -1.165134,-0.89118 -2.741385,-0.61676 -3.632657,0.54839 z m -2.53589,4.45492 c -0.68561,0.89118 -0.48002,2.19356 0.48002,2.87872 0.89118,0.68561 2.193555,0.48002 2.878712,-0.48002 0.685607,-0.89118 0.480017,-2.19355 -0.480017,-2.87872 -0.959545,-0.61628 -2.193065,-0.47954 -2.878715,0.48002 z m -2.60468,4.45541 c -0.48002,0.68561 -0.34281,1.64511 0.3428,2.12465 0.6856,0.48002 1.64511,0.34281 2.12465,-0.3428 0.48002,-0.68561 0.3428,-1.64511 -0.3428,-2.12465 -0.68513,-0.48002 -1.57633,-0.3428 -2.12465,0.3428 z m -2.5359,4.45492 c -0.3428,0.41118 -0.20559,1.02792 0.20559,1.3707 0.41117,0.34281 1.02792,0.20559 1.3707,-0.20558 0.3428,-0.41118 0.20558,-1.02792 -0.20559,-1.3707 -0.47955,-0.34281 -1.02792,-0.20559 -1.3707,0.20558 z m 15.69585,-8.91045 c 0,1.4396 1.165124,2.60468 2.604668,2.60468 1.439533,0 2.604663,-1.16514 2.604663,-2.60468 0,-1.43961 -1.16513,-2.60469 -2.604663,-2.60469 -1.439604,3.5e-4 -2.604668,1.16562 -2.604668,2.60469 z m 0.547907,5.07216 c 0,1.16513 0.891177,2.05635 2.056341,2.05635 1.165173,0 2.056343,-0.89118 2.056343,-2.05635 0,-1.16514 -0.89117,-2.05636 -2.056343,-2.05636 -1.165164,0 -2.056341,0.95955 -2.056341,2.05636 z m 0.548387,5.14057 c 0,0.82235 0.685607,1.50791 1.507894,1.50791 0.822293,0 1.507893,-0.68561 1.507893,-1.50791 0,-0.82229 -0.6856,-1.5079 -1.507893,-1.5079 -0.822287,0 -1.507894,0.68561 -1.507894,1.5079 z m 0.548387,5.14058 c 0,0.54839 0.41117,0.95955 0.959547,0.95955 0.548377,0 0.959543,-0.41117 0.959543,-0.95955 0,-0.54839 -0.411166,-0.95955 -0.959543,-0.95955 -0.548377,0 -0.959547,0.41117 -0.959547,0.95955 z m 7.47081,-16.44985 c 0.82234,1.16514 2.46747,1.43961 3.63265,0.54839 1.16513,-0.82234 1.4396,-2.46748 0.54838,-3.63267 -0.82233,-1.16514 -2.46746,-1.43961 -3.63264,-0.54839 -1.16514,0.82234 -1.43912,2.46748 -0.54839,3.63267 z m 3.42703,3.83818 c 0.6856,0.89118 1.91914,1.09676 2.8787,0.48002 0.89119,-0.68561 1.09677,-1.91915 0.48002,-2.87873 -0.61674,-0.95954 -1.91914,-1.09676 -2.8787,-0.48001 -0.95955,0.61675 -1.16514,1.91914 -0.48002,2.87872 z m 3.42703,3.76988 c 0.48002,0.6856 1.43961,0.82234 2.12465,0.3428 0.68561,-0.48002 0.82235,-1.43961 0.3428,-2.12465 -0.48002,-0.6856 -1.4396,-0.82235 -2.12465,-0.3428 -0.68512,0.54791 -0.82234,1.43912 -0.3428,2.12465 z m 3.49584,3.83817 c 0.3428,0.41118 0.89118,0.54839 1.3707,0.20559 0.48002,-0.3428 0.54839,-0.89118 0.20558,-1.3707 -0.3428,-0.41117 -0.89118,-0.54839 -1.3707,-0.20558 -0.48002,0.34232 -0.54839,0.95954 -0.20558,1.37069 z m -3.63268,-17.68358 c 1.3707,0.41117 2.81031,-0.27396 3.28985,-1.64511 0.41117,-1.3707 -0.27395,-2.8103 -1.6451,-3.28985 -1.3707,-0.41117 -2.8103,0.27396 -3.28984,1.64511 -0.47955,1.3707 0.27395,2.80982 1.64509,3.28985 z m 5.00338,1.02792 c 1.09676,0.3428 2.26185,-0.20559 2.60468,-1.30241 0.3428,-1.09676 -0.20559,-2.26185 -1.3024,-2.60468 -1.09677,-0.3428 -2.26186,0.20559 -2.60469,1.30241 -0.3428,1.09676 0.20559,2.26185 1.30241,2.60468 z m 5.00337,1.09676 c 0.82235,0.27396 1.64511,-0.20558 1.91915,-0.95955 0.27395,-0.82234 -0.20559,-1.64511 -0.95955,-1.91915 -0.82235,-0.27395 -1.64511,0.20559 -1.91915,0.95955 -0.20558,0.82235 0.20559,1.64511 0.95955,1.91915 z m 5.07216,1.02792 c 0.48002,0.13722 1.02792,-0.13721 1.23349,-0.61676 0.13722,-0.48002 -0.13721,-1.02792 -0.61676,-1.23349 -0.48002,-0.13722 -1.02792,0.13722 -1.23349,0.61676 -0.20559,0.54839 0.0684,1.09677 0.61676,1.23349 z m -13.3655,-12.13139 c 1.37069,-0.41118 2.12465,-1.91915 1.6451,-3.28985 -0.48002,-1.37119 -1.85072,-2.12514 -3.22191,-1.64511 -1.37069,0.48002 -2.12464,1.91915 -1.6451,3.28985 0.48002,1.3707 1.91963,2.05635 3.22191,1.64511 z m 4.72945,-2.12465 c 1.09677,-0.34281 1.64511,-1.50791 1.3024,-2.60468 -0.3428,-1.09677 -1.5079,-1.64511 -2.60468,-1.30241 -1.09676,0.34281 -1.64511,1.50791 -1.3024,2.60468 0.3428,1.09629 1.5079,1.64474 2.60468,1.30241 z m 4.66055,-2.05636 c 0.82234,-0.27395 1.23349,-1.09676 0.95955,-1.91914 -0.27396,-0.82235 -1.09677,-1.2335 -1.91915,-0.95956 -0.82235,0.27396 -1.2335,1.09677 -0.95955,1.91915 0.27395,0.75398 1.16514,1.16514 1.91915,0.95955 z m 4.72945,-2.12465 c 0.48002,-0.13721 0.75398,-0.6856 0.61676,-1.23349 -0.13722,-0.48002 -0.68561,-0.75397 -1.23349,-0.61676 -0.48002,0.13722 -0.75398,0.68561 -0.61676,1.23349 0.20511,0.47955 0.75348,0.75349 1.23349,0.61676 z m -17.95774,-2.05635 c 0.82235,-1.16514 0.61676,-2.81032 -0.54838,-3.63268 -1.16514,-0.82235 -2.8103,-0.61676 -3.63265,0.54839 -0.82235,1.16513 -0.61676,2.81031 0.54838,3.63268 1.16513,0.82235 2.8098,0.61676 3.63265,-0.54839 z m 2.60418,-4.45542 c 0.68561,-0.89118 0.48002,-2.19356 -0.48002,-2.87873 -0.95954,-0.6856 -2.19355,-0.48002 -2.8787,0.48002 -0.68561,0.95956 -0.48002,2.19356 0.48001,2.87873 0.89118,0.68561 2.19355,0.47954 2.87871,-0.48002 z m 2.53639,-4.45492 c 0.48002,-0.68561 0.3428,-1.64511 -0.34281,-2.12465 -0.6856,-0.48002 -1.6451,-0.34281 -2.12465,0.3428 -0.48002,0.68561 -0.3428,1.64511 0.34281,2.12465 0.68513,0.47954 1.64474,0.3428 2.12465,-0.3428 z m 2.53589,-4.454926 c 0.34281,-0.41117 0.20559,-1.02792 -0.20558,-1.37069 -0.41118,-0.34281 -1.02792,-0.20559 -1.3707,0.20558 -0.34278,0.41117 -0.20559,1.02792 0.20558,1.3707 0.47955,0.34233 1.0963,0.27396 1.3707,-0.20559 z"
       id="path73"
       style="fill:#ffdf1b;fill-opacity:1;stroke-width:0.122395" />
  </g>
</svg>
