<?xml version="1.0" encoding="UTF-8" standalone="no"?>
<!-- Created with Inkscape (http://www.inkscape.org/) -->

<svg
   width="17.342297mm"
   height="17.342318mm"
   viewBox="0 0 17.342297 17.342318"
   version="1.1"
   id="svg4608"
   inkscape:version="1.1.1 (3bf5ae0d25, 2021-09-20)"
   sodipodi:docname="greenhouse Icon.svg"
   xmlns:inkscape="http://www.inkscape.org/namespaces/inkscape"
   xmlns:sodipodi="http://sodipodi.sourceforge.net/DTD/sodipodi-0.dtd"
   xmlns="http://www.w3.org/2000/svg"
   xmlns:svg="http://www.w3.org/2000/svg">
  <sodipodi:namedview
     id="namedview4610"
     pagecolor="#ffffff"
     bordercolor="#666666"
     borderopacity="1.0"
     inkscape:pageshadow="2"
     inkscape:pageopacity="0.0"
     inkscape:pagecheckerboard="0"
     inkscape:document-units="mm"
     showgrid="false"
     inkscape:zoom="2.6547419"
     inkscape:cx="49.910691"
     inkscape:cy="79.668763"
     inkscape:window-width="1284"
     inkscape:window-height="969"
     inkscape:window-x="299"
     inkscape:window-y="138"
     inkscape:window-maximized="0"
     inkscape:current-layer="layer1" />
  <defs
     id="defs4605" />
  <g
     inkscape:label="Layer 1"
     inkscape:groupmode="layer"
     id="layer1"
     transform="translate(-45.944959,-65.080519)">
    <g
       id="g6"
       transform="matrix(0.03483855,0,0,0.03483855,42.422402,63.996831)"
       style="fill:#a8afa5;fill-opacity:1">
      <path
         d="m 155.24,178.66 -21.727,21.727 c -5.3984,5.4023 -5.3984,14.156 0,19.555 5.3984,5.3984 14.152,5.3984 19.551,0 l 21.73,-21.727 c 7.0273,4.6406 14.867,7.918 23.109,9.6641 v 30.637 c 0,7.6367 6.1914,13.824 13.824,13.824 7.6367,0 13.828,-6.1875 13.828,-13.824 v -30.637 c 8.2422,-1.7461 16.082,-5.0234 23.109,-9.6641 l 21.727,21.727 c 5.4023,5.3984 14.156,5.3984 19.555,0 5.3984,-5.3984 5.3984,-14.152 0,-19.555 L 268.219,178.66 c 4.6406,-7.0273 7.918,-14.867 9.6641,-23.109 h 30.637 c 7.6367,0 13.824,-6.1914 13.824,-13.828 0,-7.6328 -6.1875,-13.824 -13.824,-13.824 h -30.637 c -1.7461,-8.2422 -5.0234,-16.082 -9.6641,-23.109 l 21.727,-21.727 v -0.0039 c 5.3984,-5.3984 5.3984,-14.152 0,-19.551 -5.3984,-5.3984 -14.152,-5.3984 -19.555,0 l -21.727,21.727 c -7.0273,-4.6406 -14.867,-7.918 -23.109,-9.6641 V 44.934 c 0,-7.6367 -6.1914,-13.828 -13.828,-13.828 -7.6328,0 -13.824,6.1914 -13.824,13.828 v 30.637 c -8.2422,1.7461 -16.082,5.0234 -23.109,9.6641 l -21.73,-21.727 c -5.3984,-5.3984 -14.152,-5.3984 -19.551,0 -5.3984,5.3984 -5.3984,14.152 0,19.551 l 21.727,21.73 c -4.6406,7.0273 -7.918,14.867 -9.6641,23.109 h -30.637 c -7.6367,0 -13.828,6.1914 -13.828,13.824 0,7.6367 6.1914,13.828 13.828,13.828 h 30.637 c 1.7461,8.2422 5.0234,16.082 9.6641,23.109 z m 56.488,-76.879 c 10.594,0 20.754,4.2109 28.246,11.699 7.4883,7.4922 11.699,17.652 11.699,28.242 0,10.594 -4.2109,20.754 -11.699,28.246 -7.4922,7.4883 -17.652,11.699 -28.246,11.699 -10.59,0 -20.75,-4.2109 -28.242,-11.699 -7.4883,-7.4922 -11.699,-17.652 -11.699,-28.246 0.0117,-10.586 4.2266,-20.738 11.715,-28.227 7.4884,-7.489 17.641,-11.703 28.227,-11.715 z"
         id="path2-1"
         style="fill:#a8afa5;fill-opacity:1" />
      <path
         d="m 548.86,244.82 c -0.44531,-0.85547 -0.98047,-1.6602 -1.5977,-2.3984 l -130.25,-129.84 -0.0312,-0.0195 -0.0977,-0.10938 -0.28906,-0.26953 c -20.672,-22.551001 -47.219,-38.891001 -76.664,-47.191001 -7.3398,-2.0469 -14.949,2.2305 -17.02,9.5625 -2.0664,7.3359 2.1875,14.961 9.5117,17.051 24.41,6.8906 46.434,20.418001 63.613,39.078001 0.41016,0.46484 0.84375,0.91797 1.2812,1.3438 l 0.47266,0.53906 c 0.11328,0.12891 0.28125,0.16797 0.39844,0.29297 l 67.754,67.539 c -6.0742,-1.2695 -12.219,-2.1836 -18.398,-2.7461 -4.8555,-0.46094 -9.7227,-0.61328 -14.578,-0.61328 l 0.004,-0.004 c -43.992,0.0508 -86.168,17.551 -117.27,48.656 -31.105,31.105 -48.605,73.281 -48.656,117.27 v 118.72 l -110.62,-110.62 v -104.89 c 0,-7.6367 -6.1875,-13.828 -13.824,-13.828 -7.6365,0 -13.828,6.1914 -13.828,13.828 v 110.62 c 0,3.668 1.457,7.1836 4.0508,9.7773 l 138.27,138.27 c 2.6055,2.582 6.1172,4.0391 9.7812,4.0586 h 304.2 c 7.6367,-0.004 13.824,-6.1914 13.828,-13.828 v -152.1 c -0.082,-22.027 -4.5508,-43.82 -13.137,-64.102 -8.5898,-20.285 -21.133,-38.656 -36.895,-54.043 z M 391.48,501.23 v -152.1 h 82.965 v 152.1 z m 179.75,0 H 502.093 V 335.3 c 0,-7.6367 -6.1914,-13.828 -13.824,-13.828 h -110.62 c -7.6367,0 -13.828,6.1914 -13.828,13.828 V 501.23 H 294.684 V 362.96 c 0.0391,-36.66 14.621,-71.809 40.543,-97.73 25.922,-25.921 61.07,-40.504 97.73,-40.543 3.9883,0 7.9805,0.11328 12.098,0.50781 34.391,3.1758 66.363,19.047 89.691,44.516 23.324,25.469 36.332,58.711 36.48,93.25 z"
         id="path4-3"
         style="fill:#a8afa5;fill-opacity:1" />
    </g>
  </g>
</svg>
